<svg width="164" height="51" viewBox="0 0 164 51" fill="none" xmlns="http://www.w3.org/2000/svg">
<path d="M64.23 41C63.9807 41 63.7767 40.9207 63.618 40.762C63.4593 40.6033 63.38 40.3993 63.38 40.15V18.05C63.38 17.8007 63.4593 17.5967 63.618 17.438C63.7767 17.2793 63.9807 17.2 64.23 17.2H73.07C75.2913 17.2 77.184 17.5627 78.748 18.288C80.312 18.9907 81.5133 20.0333 82.352 21.416C83.1907 22.776 83.644 24.4647 83.712 26.482C83.7347 27.4793 83.746 28.352 83.746 29.1C83.746 29.848 83.7347 30.7093 83.712 31.684C83.6213 33.792 83.168 35.5373 82.352 36.92C81.5587 38.3027 80.3913 39.334 78.85 40.014C77.3313 40.6713 75.4613 41 73.24 41H64.23ZM69.466 36.104H73.07C74.0447 36.104 74.8493 35.9567 75.484 35.662C76.1413 35.3447 76.6287 34.8573 76.946 34.2C77.286 33.5427 77.4673 32.6813 77.49 31.616C77.5353 30.9587 77.558 30.3693 77.558 29.848C77.5807 29.3267 77.5807 28.8053 77.558 28.284C77.558 27.7627 77.5353 27.1847 77.49 26.55C77.4447 25.0087 77.0367 23.8867 76.266 23.184C75.518 22.4587 74.396 22.096 72.9 22.096H69.466V36.104ZM95.9459 41.34C94.6539 41.34 93.4186 41.1813 92.2399 40.864C91.0839 40.524 90.0526 40.0253 89.1459 39.368C88.2392 38.7107 87.5139 37.8947 86.9699 36.92C86.4486 35.9453 86.1652 34.812 86.1199 33.52C86.1199 33.316 86.1879 33.146 86.3239 33.01C86.4599 32.8513 86.6412 32.772 86.8679 32.772H91.4579C91.7752 32.772 92.0132 32.8513 92.1719 33.01C92.3532 33.1687 92.5006 33.4067 92.6139 33.724C92.7272 34.3587 92.9426 34.88 93.2599 35.288C93.5772 35.6733 93.9739 35.968 94.4499 36.172C94.9486 36.3533 95.5039 36.444 96.1159 36.444C97.2492 36.444 98.1219 36.0813 98.7339 35.356C99.3459 34.608 99.6519 33.52 99.6519 32.092V22.266H88.6359C88.4092 22.266 88.2052 22.1867 88.0239 22.028C87.8652 21.8693 87.7859 21.6653 87.7859 21.416V18.05C87.7859 17.8007 87.8652 17.5967 88.0239 17.438C88.2052 17.2793 88.4092 17.2 88.6359 17.2H105.092C105.341 17.2 105.545 17.2793 105.704 17.438C105.885 17.5967 105.976 17.8007 105.976 18.05V32.262C105.976 34.234 105.545 35.9 104.684 37.26C103.823 38.5973 102.644 39.6173 101.148 40.32C99.6519 41 97.9179 41.34 95.9459 41.34ZM111.345 41C111.096 41 110.892 40.9207 110.733 40.762C110.575 40.6033 110.495 40.3993 110.495 40.15V18.05C110.495 17.8007 110.575 17.5967 110.733 17.438C110.892 17.2793 111.096 17.2 111.345 17.2H127.223C127.473 17.2 127.677 17.2793 127.835 17.438C127.994 17.5967 128.073 17.8007 128.073 18.05V21.246C128.073 21.4953 127.994 21.6993 127.835 21.858C127.677 22.0167 127.473 22.096 127.223 22.096H116.377V26.686H126.475C126.725 26.686 126.929 26.7767 127.087 26.958C127.246 27.1167 127.325 27.3207 127.325 27.57V30.528C127.325 30.7547 127.246 30.9587 127.087 31.14C126.929 31.2987 126.725 31.378 126.475 31.378H116.377V36.104H127.495C127.745 36.104 127.949 36.1833 128.107 36.342C128.266 36.5007 128.345 36.7047 128.345 36.954V40.15C128.345 40.3993 128.266 40.6033 128.107 40.762C127.949 40.9207 127.745 41 127.495 41H111.345ZM133.06 41C132.811 41 132.607 40.9207 132.448 40.762C132.289 40.6033 132.21 40.3993 132.21 40.15V18.05C132.21 17.8007 132.289 17.5967 132.448 17.438C132.607 17.2793 132.811 17.2 133.06 17.2H137.548C137.775 17.2 137.967 17.2793 138.126 17.438C138.307 17.5967 138.398 17.8007 138.398 18.05V35.866H148.666C148.915 35.866 149.119 35.9567 149.278 36.138C149.459 36.2967 149.55 36.5007 149.55 36.75V40.15C149.55 40.3993 149.459 40.6033 149.278 40.762C149.119 40.9207 148.915 41 148.666 41H133.06ZM153.347 41C153.098 41 152.894 40.9207 152.735 40.762C152.577 40.6033 152.497 40.3993 152.497 40.15V18.05C152.497 17.8007 152.577 17.5967 152.735 17.438C152.894 17.2793 153.098 17.2 153.347 17.2H157.903C158.153 17.2 158.357 17.2793 158.515 17.438C158.674 17.5967 158.753 17.8007 158.753 18.05V40.15C158.753 40.3993 158.674 40.6033 158.515 40.762C158.357 40.9207 158.153 41 157.903 41H153.347Z" fill="#F2811D"/>
<path d="M38.3098 50.3635C39.04 48.8858 40.5676 45.6371 41.3074 44.2361C41.662 43.5653 42.0165 42.8887 42.4919 42.2792C43.4732 41.1005 44.9145 40.2437 46.4574 40.0904C47.1991 39.9965 47.9811 40.2322 48.6921 40.0406C49.3725 39.8451 49.9514 39.3353 50.3213 38.7219L50.4746 38.6357C50.4497 38.6165 50.4075 38.6146 50.3845 38.628C50.3749 38.63 50.3634 38.651 50.3692 38.6395L50.3826 38.6127C50.6528 38.1106 50.7065 37.5145 50.6739 36.951C50.6643 36.7076 50.5743 36.376 50.4573 36.0789C50.2542 35.5346 49.8996 35.1187 49.7808 34.5073C49.7597 34.354 49.775 34.1776 49.8019 34.0301C49.8287 33.8806 49.8574 33.7234 49.9149 33.5816V33.5758H49.9188C49.9188 33.5777 49.9149 33.5777 49.9379 33.5432C49.9724 33.4857 50.0606 33.4455 50.1143 33.4493L49.9226 33.5701L50.0702 33.1963C50.0817 33.1657 50.097 33.1312 50.1047 33.1063C50.1085 33.0928 50.1085 33.0909 50.1104 33.0813C50.1104 33.0871 50.1104 33.089 50.1104 33.0871C50.1047 33.0449 50.0702 32.9683 50.0299 32.928C49.9859 32.8763 49.9859 32.8839 49.8939 32.8648C49.2058 32.8322 48.5407 33.0449 47.7971 33.0085C46.9978 32.9453 46.007 32.7555 45.4703 32.0904C45.2422 31.7589 45.4569 31.4005 45.7425 31.228C46.327 30.9079 46.9154 30.5763 47.5249 30.1777C47.5939 30.1297 47.6725 30.0703 47.7587 30.0742L47.6073 30.1221C47.8392 29.9553 48.0712 29.7924 48.2724 29.6199C48.5714 29.3573 48.7362 29.1388 48.6097 28.8034C48.5771 28.7134 48.5235 28.675 48.512 28.6769C48.0117 28.6884 47.6495 28.2112 47.615 27.7474C47.5633 27.4791 47.776 27.1436 47.8987 26.9788C48.2954 26.3463 48.7956 25.6257 48.4449 24.8724C48.0098 23.8892 46.8158 23.4772 45.9418 22.8983C44.9298 22.3157 43.7204 21.5337 43.5383 20.2515C43.4329 19.6746 43.3543 19.1418 43.201 18.5859C42.4248 15.6708 40.4238 12.9338 37.5431 11.8548C36.7171 11.5654 35.7799 11.3603 35.109 10.7374C33.7981 9.52415 32.995 7.86053 32.3568 6.22182C32.2322 5.90558 31.9313 4.99325 31.7511 4.66934C30.6184 2.79872 28.123 2.19692 26.076 1.91326C22.7794 1.53569 19.226 2.01867 16.514 4.04071C14.6855 5.36509 13.1235 7.05555 11.548 8.68276C10.7584 9.51266 9.96107 10.3349 9.19634 11.1782C4.54661 16.0886 1.78284 22.9769 2.69899 29.7617C3.56338 36.7018 8.00611 42.6376 14.7277 44.8417C16.3607 45.3937 18.0875 45.3535 19.7837 45.2251C20.3434 45.1906 20.9433 45.1369 21.501 45.0621C22.1163 44.8417 24.4967 43.9812 24.4411 45.4493C24.3434 46.2753 23.8451 46.9883 23.387 47.6496C23.0037 48.1766 22.582 48.675 22.1393 49.1522C22.5705 48.6654 22.9787 48.1575 23.3487 47.6227C25.1254 44.997 24.4929 44.1 21.5336 45.2327L21.503 45.2385C21.503 45.2385 21.503 45.2385 21.4895 45.2423L21.4627 45.2461L21.409 45.2538C20.3089 45.409 19.1915 45.4876 18.0818 45.5451C14.5686 45.7195 11.2625 43.9677 8.57343 41.8441C4.08663 38.0856 1.78284 32.1537 1.93426 26.3617C1.99942 22.8619 3.05548 19.4542 4.63669 16.3512C6.22748 13.2309 8.64434 10.6894 11.0344 8.19209C14.5456 4.51985 17.2519 1.48777 22.6606 1.09295C25.7483 0.836118 30.6663 1.36701 32.397 4.31669C32.6328 4.76901 32.857 5.48007 33.0391 5.96306C33.2365 6.49205 33.455 7.00955 33.7003 7.50979C34.3213 8.67893 35.0094 9.98032 36.2111 10.632C36.9701 10.9865 37.8613 11.1475 38.6107 11.5615C41.5431 13.0546 43.4463 16.102 44.0367 19.2798L44.1842 20.1231C44.2762 20.6425 44.5254 21.068 44.9126 21.411C45.752 22.1202 46.8081 22.6319 47.7511 23.2529C48.4066 23.6688 49.0141 24.3109 49.1425 25.1178C49.3074 26.0454 48.6212 26.8734 48.1938 27.5998C48.1478 27.7493 48.2475 27.9812 48.3548 28.0694C48.4296 28.1211 48.3778 28.0962 48.6538 28.1422C49.1291 28.309 49.2211 28.7498 49.1924 29.1714C49.0659 29.848 48.4027 30.1911 47.914 30.5591L47.7626 30.607C47.8124 30.6108 47.8718 30.5878 47.9063 30.5648L47.9006 30.5686C47.4176 30.883 46.8886 31.1839 46.3864 31.4675C46.2101 31.5557 45.9725 31.6381 45.8728 31.7934C45.8613 31.7723 45.8996 31.8681 45.9859 31.9371C46.4919 32.3338 47.178 32.4968 47.8201 32.5447C48.3491 32.5696 48.901 32.468 49.4856 32.4239C49.7731 32.4105 50.1584 32.376 50.3711 32.652C50.4861 32.7938 50.5704 32.9721 50.5436 33.1695C50.5206 33.3075 50.3577 33.6372 50.3098 33.7732L50.1181 33.894C50.1756 33.9055 50.2983 33.8288 50.3117 33.7713C50.2676 33.8806 50.2465 34.0013 50.2235 34.1163C50.2063 34.2351 50.1814 34.3501 50.1986 34.4671C50.2293 34.6875 50.3481 34.929 50.4727 35.1743C50.7333 35.6745 50.9844 36.2227 51.0534 36.7977C51.109 37.4531 51.0419 38.2083 50.6988 38.8082C50.6643 38.8906 50.557 38.9903 50.4746 39.0114L50.6279 38.927C50.2043 39.594 49.5623 40.1518 48.7726 40.3645C47.9983 40.5619 47.2432 40.3051 46.4784 40.3817C45.7444 40.4335 45.0256 40.6654 44.3778 41.0296C43.7338 41.3956 43.1129 41.8326 42.6452 42.4153C41.9495 43.2931 41.4435 44.3338 40.9087 45.3228C40.5446 46.0569 38.7104 49.5854 38.3098 50.375" fill="#F2811D"/>
<path d="M40.6193 19.5672C41.3879 18.3674 42.7026 17.9764 43.1147 17.8518C43.3773 17.7733 43.8507 17.6544 43.8852 17.7369C43.9082 17.7924 43.7223 17.917 42.9422 18.4058C41.8689 19.0785 41.8038 19.1034 41.5699 19.297C41.1464 19.6477 40.7534 20.0272 40.7534 20.0272C40.4391 20.33 40.2915 20.5006 40.2455 20.4719C40.1804 20.4297 40.3663 19.9621 40.6174 19.5692L40.6193 19.5672Z" fill="#F2811D"/>
<path d="M45.0814 21.7752C45.0316 22.2524 44.3972 22.4326 44.1672 22.4978C43.7973 22.6032 43.1552 22.655 43.0172 22.3732C42.8543 22.0416 43.5079 21.4666 43.573 21.4091C43.8414 21.1734 44.1691 20.884 44.5428 20.9951C44.8629 21.0891 45.1159 21.4475 45.0814 21.7733V21.7752Z" fill="#F2811D"/>
<path d="M48.6193 28.2055C48.4239 28.1518 48.2073 28.1787 47.9313 28.3224C47.4253 28.585 47.1186 29.0335 46.3366 30.2601C46.0357 30.7297 45.1407 32.1441 45.4397 31.6726C45.5489 31.4542 46.0051 31.2951 46.8714 30.9712C47.5748 30.7067 47.9715 30.5054 48.3338 30.2716C48.6308 30.078 48.7439 29.9669 48.8302 29.8595C48.8647 29.8155 49.3898 29.1293 49.1062 28.5831C48.9624 28.3051 48.6519 28.2151 48.6213 28.2074" fill="#F2811D"/>
<path d="M46.3482 32.3338C46.3482 32.3338 47.1743 32.5312 47.9946 32.514C48.5159 32.5025 48.6769 32.4124 49.6391 32.3741C49.9745 32.3607 50.1489 32.3626 50.3156 32.4776C50.6606 32.7172 50.8312 33.3535 50.5763 33.6927C50.4019 33.9246 50.0607 33.917 49.3746 33.9055C49.3746 33.9055 48.6079 33.8921 47.8815 33.5931C47.7972 33.5586 47.7225 33.5202 47.7225 33.5202C47.6592 33.4876 47.6055 33.4512 47.4829 33.3765C47.2721 33.25 46.7546 32.9625 46.6147 32.8858C45.9132 32.4948 45.388 31.663 45.4378 31.617L46.3482 32.3338Z" fill="#F2811D"/>
<path d="M37.2921 11.4427C37.3975 11.1092 37.5144 10.6166 37.5182 10.0167C37.5221 9.6506 37.3936 8.22849 36.5235 6.99227C35.6725 5.78288 34.5992 6.37319 33.708 5.13697C32.9279 4.05216 33.5316 3.29127 32.8187 2.51121C31.914 1.52223 30.7545 2.53612 28.6155 1.7848C26.8062 1.14848 26.7698 0.117336 25.2998 0.00808845C24.0348 -0.085826 23.9275 0.667405 22.3443 0.74982C20.4871 0.847567 20.0521 -0.156731 18.8791 0.282176C17.7349 0.709582 17.8518 1.77714 16.6117 2.19496C15.5442 2.55528 15.2145 1.84614 14.1814 2.17388C12.8187 2.60704 13.0046 3.96209 11.5576 4.66549C10.2255 5.3133 9.57006 4.4029 8.4795 5.11013C7.36786 5.83078 7.84318 6.90792 6.65104 8.0349C5.3784 9.24045 4.21118 8.60029 3.54803 9.70043C2.97496 10.6511 3.74544 11.2912 3.32379 12.7785C2.82738 14.5361 1.52599 14.4517 1.01042 16.008C0.446936 17.71 1.84032 18.2946 1.71958 20.6348C1.57966 23.3525 -0.379126 24.054 0.0655303 26.0185C0.399022 27.4886 1.62374 27.6592 1.65441 29.0468C1.68508 30.4517 0.437355 30.6913 0.400939 31.9677C0.34919 33.7464 2.75072 34.0224 4.01952 36.949C4.86092 38.8887 4.13069 39.4081 5.03916 40.6059C6.3003 42.2657 7.82977 41.3899 9.88055 43.2643C11.2605 44.5255 11.1168 45.4243 12.2399 45.7406C13.1829 46.007 13.687 45.4857 15.6342 45.5048C15.8968 45.5068 16.2322 45.5202 17.4627 45.6793C21.7061 46.2236 22.9979 46.7487 23.7952 45.9361C24.1153 45.6103 23.983 45.4473 24.3223 44.6539C25.547 41.7962 28.3261 42.1316 28.7497 39.801C28.9528 38.6817 28.8091 37.1254 28.2916 36.1786C28.0482 35.7358 27.9121 35.4579 27.684 35.3218C27.4272 35.1685 27.293 35.2432 27.0535 35.1455C26.5513 34.9404 26.4536 34.3329 26.1124 33.5854C25.6103 32.491 25.3093 32.6884 24.9912 31.8796C24.65 31.0133 24.514 29.5605 25.2614 28.8398C25.8498 28.2725 26.7621 28.3722 27.1033 28.4124C28.3031 28.5542 28.7976 29.3151 29.3228 29.0507C29.6122 28.905 29.7923 28.5082 29.869 27.6956C30.0875 25.3976 29.041 24.3645 28.8704 22.538C28.6998 20.698 29.5278 19.2433 30.3462 17.7982C31.7262 15.366 33.7348 14.1087 34.5206 13.6717C34.5494 13.6564 34.6299 13.6161 34.743 13.5529C35.5498 13.1005 36.1402 12.5945 36.5465 12.1901" fill="#F2811D"/>
<path d="M28.7859 34.5878C29.9991 34.6664 31.0955 35.3755 31.8046 36.3453C33.2842 38.3233 33.1635 41.294 31.5669 43.1953C29.7442 45.4014 26.6182 45.225 24.9776 42.9021C23.4788 40.8302 23.6858 37.708 25.4951 35.9122C26.3518 35.0382 27.5631 34.4977 28.7859 34.5897M28.7821 34.6664C25.0255 34.6299 23.751 39.7914 25.6024 42.4709C26.923 44.5408 29.5794 44.7114 31.1913 42.8695C33.5238 40.3817 32.6288 34.9596 28.7821 34.6664Z" fill="#FBB03B"/>
<path d="M13.2847 10.0454L12.2478 15.0996L7.49072 16.1844L12.1711 17.1254L13.2847 21.3727V10.0454Z" fill="#057BB6"/>
<path d="M13.2847 10.0455L14.3196 15.0996L19.0786 16.1844L14.3982 17.1255L13.2847 21.3727V10.0455Z" fill="#057BB6"/>
</svg>
